<svg width="597" height="114" viewBox="0 0 597 114" fill="none" xmlns="http://www.w3.org/2000/svg">
<path d="M173.373 56.6578C173.373 87.949 148.006 113.316 116.715 113.316C85.4238 113.316 60.0573 87.949 60.0573 56.6578C60.0573 25.3666 85.4238 0 116.715 0C148.006 0 173.373 25.3666 173.373 56.6578Z" fill="url(#paint0_linear_3760_4077)"/>
<path d="M0 113.316C15.0266 113.316 29.4377 107.346 40.0631 96.7209C50.6885 86.0955 56.6578 71.6844 56.6578 56.6578C56.6578 41.6312 50.6885 27.2201 40.0631 16.5947C29.4377 5.96929 15.0266 2.92578e-06 1.35083e-05 0L0 113.316Z" fill="url(#paint1_linear_3760_4077)"/>
<path d="M257.208 114C233.596 114 219.678 97.4242 219.678 73.3424C219.678 49.2605 233.596 32.6847 256.895 32.6847C267.216 32.6847 275.504 37.0633 280.039 43.4747V0.158637H299.117V112.749H280.039V102.897C275.504 109.778 266.747 114 257.208 114ZM260.023 97.4242C272.846 97.4242 281.29 87.8853 281.29 73.3424C281.29 58.7995 272.846 49.2605 260.023 49.2605C247.2 49.2605 238.756 58.7995 238.756 73.3424C238.756 87.8853 247.2 97.4242 260.023 97.4242Z" fill="url(#paint2_linear_3760_4077)"/>
<path d="M336.906 32.6847C356.922 32.6847 370.996 44.2565 370.996 62.0833V112.749H352.074V101.021C348.791 108.84 339.721 114 328.462 114C312.824 114 302.191 103.992 302.191 90.3873C302.191 75.0625 314.075 65.5236 331.746 65.5236H346.289C350.198 65.5236 352.074 63.3343 352.074 60.2068C352.074 52.5444 346.132 47.0713 335.968 47.0713C325.803 47.0713 319.705 53.4827 319.392 60.5196H302.191C303.129 44.882 316.421 32.6847 336.906 32.6847ZM332.997 99.7698C345.038 99.7698 352.074 91.3256 352.074 79.441V78.19H334.404C326.272 78.19 320.799 82.7249 320.799 89.6054C320.799 95.7041 325.803 99.7698 332.997 99.7698Z" fill="url(#paint3_linear_3760_4077)"/>
<path d="M402.958 114C383.88 114 371.213 103.366 370.275 86.4779H387.789C388.571 93.9839 394.357 98.6752 402.958 98.6752C410.464 98.6752 415.468 94.9222 415.468 90.2309C415.468 72.7169 372.308 89.4491 372.308 56.1411C372.308 42.38 384.349 32.6847 400.612 32.6847C419.064 32.6847 431.731 42.8491 432.513 58.174H414.998C413.904 50.8243 407.18 47.0713 401.081 47.0713C394.201 47.0713 389.666 50.1988 389.666 55.5156C389.666 72.5605 433.451 53.7954 433.451 89.449C433.451 104.305 421.41 114 402.958 114Z" fill="url(#paint4_linear_3760_4077)"/>
<path d="M435.467 112.749V0.158637H454.544V46.133C458.923 37.5324 467.993 32.6847 479.252 32.6847C496.922 32.6847 508.494 45.5075 508.494 63.9598V112.749H489.416V68.0256C489.416 57.2357 482.692 49.7297 472.84 49.7297C462.207 49.7297 454.544 58.174 454.544 69.7457V112.749H435.467Z" fill="url(#paint5_linear_3760_4077)"/>
<path d="M551.026 114C523.816 114 511.463 95.2349 511.463 61.7706V54.2646C511.463 20.8002 523.816 2.03515 551.026 2.03515H557.281C584.49 2.03515 597 20.8002 597 54.2646V61.7706C597 95.2349 584.49 114 557.281 114H551.026ZM551.964 96.0168H556.342C568.696 96.0168 576.358 86.4779 576.358 67.2437V48.7914C576.358 29.4009 568.696 19.8619 556.342 19.8619H551.964C539.61 19.8619 532.104 29.4009 532.104 48.7914V67.2437C532.104 86.4779 539.61 96.0168 551.964 96.0168Z" fill="url(#paint6_linear_3760_4077)"/>
<defs>
<linearGradient id="paint0_linear_3760_4077" x1="3" y1="61" x2="148.262" y2="316.813" gradientUnits="userSpaceOnUse">
<stop offset="0.276887" stop-color="#F74B48"/>
<stop offset="0.747422" stop-color="#F9745D"/>
<stop offset="1" stop-color="#FC9C64"/>
</linearGradient>
<linearGradient id="paint1_linear_3760_4077" x1="3" y1="61" x2="148.262" y2="316.813" gradientUnits="userSpaceOnUse">
<stop offset="0.276887" stop-color="#F74B48"/>
<stop offset="0.747422" stop-color="#F9745D"/>
<stop offset="1" stop-color="#FC9C64"/>
</linearGradient>
<linearGradient id="paint2_linear_3760_4077" x1="3" y1="61" x2="148.262" y2="316.813" gradientUnits="userSpaceOnUse">
<stop offset="0.276887" stop-color="#F74B48"/>
<stop offset="0.747422" stop-color="#F9745D"/>
<stop offset="1" stop-color="#FC9C64"/>
</linearGradient>
<linearGradient id="paint3_linear_3760_4077" x1="3" y1="61" x2="148.262" y2="316.813" gradientUnits="userSpaceOnUse">
<stop offset="0.276887" stop-color="#F74B48"/>
<stop offset="0.747422" stop-color="#F9745D"/>
<stop offset="1" stop-color="#FC9C64"/>
</linearGradient>
<linearGradient id="paint4_linear_3760_4077" x1="3" y1="61" x2="148.262" y2="316.813" gradientUnits="userSpaceOnUse">
<stop offset="0.276887" stop-color="#F74B48"/>
<stop offset="0.747422" stop-color="#F9745D"/>
<stop offset="1" stop-color="#FC9C64"/>
</linearGradient>
<linearGradient id="paint5_linear_3760_4077" x1="3" y1="61" x2="148.262" y2="316.813" gradientUnits="userSpaceOnUse">
<stop offset="0.276887" stop-color="#F74B48"/>
<stop offset="0.747422" stop-color="#F9745D"/>
<stop offset="1" stop-color="#FC9C64"/>
</linearGradient>
<linearGradient id="paint6_linear_3760_4077" x1="3" y1="61" x2="148.262" y2="316.813" gradientUnits="userSpaceOnUse">
<stop offset="0.276887" stop-color="#F74B48"/>
<stop offset="0.747422" stop-color="#F9745D"/>
<stop offset="1" stop-color="#FC9C64"/>
</linearGradient>
</defs>
</svg>
