<?xml version="1.0" encoding="UTF-8"?><svg id="Layer_1" xmlns="http://www.w3.org/2000/svg" viewBox="0 0 358.47 53.06"><defs><style>.cls-1{stroke-width:0px;}</style></defs><g id="stormforge"><path id="e" class="cls-1" d="m358.47,18.27v1.93h-16.3c.22,1.39.89,2.66,1.91,3.62.93.88,2.17,1.36,3.45,1.35,2.43,0,4.2-.94,5.32-2.83l5.06,1.07c-.8,2.04-2.23,3.76-4.07,4.93-1.9,1.14-4.09,1.72-6.3,1.67-2.93.07-5.75-1.08-7.81-3.17-2.12-2.12-3.18-4.83-3.17-8.15,0-3.32,1.07-6.04,3.19-8.17,2.07-2.11,4.92-3.26,7.87-3.19,2.82-.04,5.54,1.07,7.53,3.07,2.1,2.04,3.21,4.67,3.32,7.87Zm-10.85-6c-1.17,0-2.32.36-3.28,1.03-1.01.68-1.73,1.73-1.99,2.92h10.34c-.25-1.18-.92-2.23-1.89-2.96-.92-.66-2.04-1.01-3.17-.99Z"/><path id="g" class="cls-1" d="m332.49,7.98v21.92c0,3.2-1.12,5.7-3.37,7.51-2.24,1.8-5.14,2.7-8.68,2.7-4.97,0-8.45-1.57-10.42-4.72l4.59-3.9c.7.95,1.57,1.76,2.57,2.38.83.47,1.92.71,3.26.71,1.89,0,3.42-.47,4.61-1.42,1.19-.94,1.78-2.32,1.78-4.12v-1.5c-1.8,1.66-4.16,2.49-7.08,2.49-2.83,0-5.29-1.07-7.38-3.22-2.09-2.14-3.13-4.85-3.13-8.11,0-3.26,1.05-5.97,3.15-8.13,2.1-2.16,4.55-3.24,7.36-3.24,2.91,0,5.27.83,7.08,2.49v-1.85h5.66Zm-11.75,17.11c1.6,0,3.13-.64,4.25-1.78,1.23-1.19,1.84-2.72,1.84-4.61.06-1.73-.61-3.41-1.84-4.63-1.11-1.15-2.65-1.8-4.25-1.8-1.62-.05-3.19.59-4.31,1.76-1.13,1.17-1.69,2.73-1.69,4.67,0,1.94.56,3.5,1.69,4.65,1.13,1.16,2.69,1.79,4.31,1.74Z"/><path id="r" class="cls-1" d="m306.11,7.68c.51-.02,1.01.04,1.5.17l-.3,5.45h-1.24c-5.09,0-7.63,3.06-7.63,9.18v6.9h-5.66V7.98h5.66v3.9c1.95-2.8,4.51-4.2,7.68-4.2Z"/><path id="o" class="cls-1" d="m277.79,7.46c3.03-.07,5.97,1.07,8.17,3.15,2.24,2.1,3.37,4.8,3.37,8.08,0,3.29-1.12,5.98-3.37,8.08-2.2,2.09-5.14,3.22-8.17,3.15-3.26,0-6.02-1.05-8.28-3.15-2.26-2.1-3.39-4.8-3.39-8.08,0-3.29,1.13-5.98,3.39-8.08,2.26-2.1,5.02-3.15,8.28-3.15Zm0,17.63c1.58,0,3.1-.65,4.2-1.78,1.23-1.19,1.84-2.72,1.84-4.61,0-1.89-.61-3.42-1.84-4.61-1.11-1.13-2.62-1.78-4.2-1.78-1.61,0-3.16.63-4.31,1.76-1.24,1.17-1.86,2.72-1.87,4.63,0,1.91.62,3.46,1.87,4.63,1.15,1.13,2.7,1.77,4.31,1.76Z"/><path id="f" class="cls-1" d="m251.86,5.92v7.03h10.75v5.28h-10.75v11.15h-5.83V.64h21.44v5.28h-15.61Z"/><path id="m" class="cls-1" d="m231.98,7.33c2.21-.03,4.33.84,5.88,2.42,1.63,1.61,2.45,3.69,2.45,6.24v13.38h-5.62v-12.22c0-1.4-.4-2.52-1.2-3.37-.77-.83-1.87-1.29-3-1.27-1.41-.06-2.76.55-3.65,1.65-.89,1.1-1.33,2.74-1.33,4.91v10.29h-5.66v-12.22c0-1.4-.4-2.52-1.2-3.37-.77-.83-1.87-1.29-3-1.27-1.55,0-2.75.54-3.6,1.63s-1.29,2.73-1.29,4.93v10.29h-5.66V7.98h5.66v1.76c1.6-1.6,3.73-2.4,6.39-2.4,3.09,0,5.43,1.17,7.03,3.52,1.89-2.34,4.49-3.52,7.81-3.52Z"/><path id="r-2" class="cls-1" d="m200.03,7.68c.51-.02,1.01.04,1.5.17l-.3,5.45h-1.24c-5.09,0-7.63,3.06-7.63,9.18v6.9h-5.66V7.98h5.66v3.9c1.95-2.8,4.51-4.2,7.68-4.2Z"/><path id="o-2" class="cls-1" d="m171.81,7.46c3.03-.07,5.97,1.07,8.17,3.15,2.24,2.1,3.37,4.8,3.37,8.08,0,3.29-1.12,5.98-3.37,8.08-2.2,2.09-5.14,3.22-8.17,3.15-3.26,0-6.02-1.05-8.28-3.15-2.26-2.1-3.39-4.8-3.39-8.08,0-3.29,1.13-5.98,3.39-8.08,2.26-2.1,5.02-3.15,8.28-3.15Zm0,17.63c1.58,0,3.1-.65,4.2-1.78,1.23-1.19,1.84-2.72,1.84-4.61s-.61-3.42-1.84-4.61c-1.11-1.13-2.62-1.78-4.2-1.78-1.61,0-3.16.63-4.31,1.76-1.24,1.17-1.86,2.72-1.87,4.63,0,1.91.62,3.46,1.87,4.63,1.15,1.13,2.7,1.77,4.31,1.76Z"/><path id="t" class="cls-1" d="m157.46,23.72l1.63,4.72c-1.97,1.06-3.83,1.59-5.58,1.59-2.63,0-4.69-.71-6.18-2.12-1.49-1.42-2.23-3.55-2.23-6.41V0h5.66v7.98h6.99v4.63h-6.99v8.45c0,2.46,1.04,3.69,3.13,3.69,1.25-.05,2.48-.4,3.56-1.03Z"/><path id="s" class="cls-1" d="m129.68,0c2.91,0,5.4.74,7.46,2.23,2.03,1.44,3.42,3.61,3.9,6.05l-5.83,1.2c-.17-1.29-.85-2.46-1.89-3.24-1.08-.82-2.41-1.26-3.77-1.22-1.4,0-2.53.34-3.39,1.03-.81.59-1.29,1.53-1.29,2.53,0,1.57.96,2.55,2.87,2.92l6.18,1.24c2.37.51,4.22,1.46,5.55,2.85,1.33,1.39,1.99,3.18,1.99,5.38,0,2.77-1.04,4.98-3.13,6.61-2.09,1.63-4.85,2.45-8.28,2.44-3.17,0-5.88-.74-8.13-2.21-2.2-1.4-3.63-3.73-3.88-6.33l6.13-1.24c.74,3.12,2.89,4.68,6.43,4.67,1.63,0,2.89-.34,3.77-1.03.84-.6,1.34-1.58,1.33-2.62.04-.75-.23-1.48-.75-2.02-.5-.49-1.37-.86-2.59-1.11l-6.09-1.16c-5.03-1.06-7.55-3.8-7.55-8.23-.07-2.46,1.03-4.8,2.96-6.33,1.97-1.61,4.63-2.42,7.98-2.42Z"/></g><path id="anvil" class="cls-1" d="m100.72,9.55c1.62-.47,3.62-.76,5.26-1.12V.05h-24.88l-8.51,10.07,11.72.47-29.56,27.66,14.13-21.54-13.11-.38L67.4.05h-32.56c-.17,1.46-.33,2.77-.51,4.3H0c.46.97.61,1.67,1.02,2.12,7.49,8.18,16.5,13.73,27.55,15.58,2.68.45,5.44.36,8.12.8,4.94.82,8.34,4.67,8.79,9.64.56,6.21-2.67,10.03-10.68,12.54v7.86h26.37c2.19-6.28,4.49-8.41,9.01-8.4s6.96,2.27,8.93,8.29h26.76c-.08-1.59-.07-3.18.03-4.76.34-2.86-.55-3.93-3.67-4.39-7.62-1.12-13.61-8.2-14-15.68-.46-8.81,4.43-16.05,12.48-18.39Z"/><path class="cls-1" d="m118.06,52.76v-14.26h5.6c.9,0,1.66.18,2.28.55.61.37,1.08.85,1.39,1.43.31.58.47,1.2.47,1.85,0,.79-.19,1.46-.58,2.02s-.91.94-1.56,1.15l-.02-.49c.91.22,1.61.66,2.1,1.31.49.65.73,1.41.73,2.27s-.17,1.57-.5,2.19c-.33.62-.82,1.1-1.46,1.45-.64.35-1.41.52-2.31.52h-6.14Zm2.1-8.44h3.48c.38,0,.73-.08,1.03-.23.31-.16.55-.38.73-.67s.27-.65.27-1.06c0-.55-.18-1.01-.55-1.37-.37-.36-.87-.53-1.49-.53h-3.48v3.87Zm0,6.47h3.72c.47,0,.89-.09,1.26-.27.37-.18.67-.43.88-.77.21-.33.32-.73.32-1.19,0-.43-.09-.82-.28-1.16-.19-.35-.46-.62-.81-.82-.35-.2-.77-.3-1.24-.3h-3.85v4.52Z"/><path class="cls-1" d="m133.28,52.76v-5.89l-4.82-8.37h2.42l3.46,5.99,3.46-5.99h2.42l-4.82,8.37v5.89h-2.1Z"/><path class="cls-1" d="m153.64,53.06c-1.43,0-2.64-.31-3.64-.94-1-.62-1.77-1.49-2.3-2.61-.53-1.12-.8-2.41-.8-3.88s.27-2.77.8-3.88c.53-1.12,1.3-1.99,2.3-2.61,1-.62,2.22-.94,3.64-.94,1.64,0,3.01.42,4.08,1.25,1.08.83,1.83,1.95,2.25,3.36l-2.1.56c-.28-1-.77-1.78-1.48-2.35s-1.63-.85-2.76-.85c-1.01,0-1.85.23-2.52.68-.67.46-1.18,1.09-1.52,1.91-.34.82-.51,1.77-.51,2.86,0,1.09.16,2.04.5,2.86.34.82.85,1.46,1.52,1.91.68.46,1.52.68,2.53.68,1.13,0,2.05-.29,2.76-.86.71-.57,1.2-1.35,1.48-2.34l2.1.56c-.42,1.41-1.17,2.52-2.25,3.36-1.08.83-2.44,1.25-4.08,1.25Z"/><path class="cls-1" d="m162.36,52.76v-14.26h2.07v12.31h6.46v1.95h-8.53Z"/><path class="cls-1" d="m178.12,53.06c-1.43,0-2.64-.31-3.64-.94-1-.62-1.77-1.49-2.3-2.61-.53-1.12-.8-2.41-.8-3.88s.27-2.77.8-3.88c.53-1.12,1.3-1.99,2.3-2.61,1-.62,2.22-.94,3.64-.94s2.63.31,3.64.94c1.01.62,1.77,1.49,2.3,2.61.53,1.12.79,2.41.79,3.88s-.26,2.77-.79,3.88c-.53,1.12-1.3,1.99-2.3,2.61-1.01.62-2.22.94-3.64.94Zm0-1.97c1.01.01,1.85-.21,2.52-.67.67-.46,1.17-1.1,1.51-1.92.34-.82.5-1.78.5-2.87s-.17-2.04-.5-2.86c-.34-.82-.84-1.45-1.51-1.91s-1.51-.69-2.52-.69c-1.01-.01-1.85.21-2.52.66-.67.46-1.17,1.1-1.51,1.92s-.51,1.78-.52,2.87c0,1.09.16,2.04.5,2.86s.84,1.45,1.52,1.91c.68.46,1.52.69,2.53.69Z"/><path class="cls-1" d="m192.52,53.06c-1.12,0-2.1-.23-2.96-.69-.86-.46-1.52-1.1-2.01-1.93-.48-.83-.72-1.8-.72-2.93v-9h2.1s0,8.89,0,8.89c0,.61.1,1.14.31,1.6.2.46.48.85.82,1.16.34.31.73.54,1.15.7s.86.24,1.3.24.89-.08,1.31-.24c.43-.16.81-.4,1.15-.71.34-.31.62-.7.82-1.16.2-.46.3-.99.3-1.59v-8.9h2.1v9.01c0,1.12-.24,2.09-.72,2.92-.48.83-1.15,1.48-2.01,1.94s-1.84.69-2.96.69Z"/><path class="cls-1" d="m200.97,52.76v-14.26h4.47c.13,0,.38,0,.74,0,.36,0,.7.03,1.03.08,1.12.14,2.05.54,2.82,1.2.76.66,1.34,1.5,1.73,2.51.39,1.01.58,2.12.58,3.33s-.19,2.33-.58,3.34c-.39,1.01-.97,1.85-1.73,2.51s-1.7,1.05-2.82,1.19c-.33.05-.67.07-1.03.08-.36,0-.61,0-.74,0h-4.47Zm2.12-1.97h2.35c.22,0,.49,0,.8-.02s.58-.04.82-.08c.73-.14,1.32-.45,1.77-.95.45-.49.78-1.1,1-1.82.21-.72.32-1.49.32-2.3s-.11-1.62-.33-2.33-.55-1.32-1-1.8c-.45-.49-1.03-.79-1.75-.93-.24-.05-.51-.07-.83-.08-.31,0-.58-.01-.8-.01h-2.35v10.32Z"/><path class="cls-1" d="m214.65,52.76v-14.26h5.6c.9,0,1.66.18,2.28.55.61.37,1.08.85,1.39,1.43.31.58.47,1.2.47,1.85,0,.79-.19,1.46-.58,2.02s-.91.94-1.56,1.15l-.02-.49c.91.22,1.61.66,2.1,1.31.49.65.73,1.41.73,2.27s-.17,1.57-.5,2.19c-.33.62-.82,1.1-1.46,1.45-.64.35-1.41.52-2.31.52h-6.14Zm2.1-8.44h3.48c.38,0,.73-.08,1.03-.23.31-.16.55-.38.73-.67.18-.29.27-.65.27-1.06,0-.55-.18-1.01-.55-1.37-.37-.36-.86-.53-1.49-.53h-3.48v3.87Zm0,6.47h3.72c.47,0,.89-.09,1.26-.27.37-.18.67-.43.88-.77.21-.33.32-.73.32-1.19,0-.43-.09-.82-.28-1.16-.19-.35-.46-.62-.81-.82-.35-.2-.77-.3-1.24-.3h-3.85v4.52Z"/><path class="cls-1" d="m232.98,53.06c-1.43,0-2.64-.31-3.64-.94-1-.62-1.77-1.49-2.3-2.61s-.8-2.41-.8-3.88.27-2.77.8-3.88c.53-1.12,1.3-1.99,2.3-2.61,1-.62,2.22-.94,3.64-.94s2.63.31,3.64.94c1.01.62,1.77,1.49,2.3,2.61.53,1.12.79,2.41.79,3.88s-.26,2.77-.79,3.88c-.53,1.12-1.3,1.99-2.3,2.61-1.01.62-2.22.94-3.64.94Zm0-1.97c1.01.01,1.85-.21,2.52-.67.67-.46,1.17-1.1,1.51-1.92.34-.82.51-1.78.51-2.87s-.17-2.04-.51-2.86c-.34-.82-.84-1.45-1.51-1.91-.67-.46-1.51-.69-2.52-.69-1.01-.01-1.85.21-2.52.66-.67.46-1.17,1.1-1.51,1.92-.34.83-.51,1.78-.52,2.87,0,1.09.16,2.04.5,2.86.34.82.84,1.45,1.52,1.91.68.46,1.52.69,2.53.69Z"/><path class="cls-1" d="m241.89,52.76v-14.26h2.07v12.31h6.46v1.95h-8.53Z"/><path class="cls-1" d="m253.67,52.76v-12.31h-4.74v-1.95h11.56v1.95h-4.74v12.31h-2.07Z"/></svg>